<?xml version="1.0" encoding="utf-8"?>
<!-- Generator: Adobe Illustrator 28.0.0, SVG Export Plug-In . SVG Version: 6.00 Build 0)  -->
<svg version="1.1" id="Layer_1" xmlns="http://www.w3.org/2000/svg" xmlns:xlink="http://www.w3.org/1999/xlink" x="0px" y="0px"
	 viewBox="0 0 260 260" style="enable-background:new 0 0 260 260;" xml:space="preserve">
<style type="text/css">
	.st0{fill:url(#SVGID_1_);}
</style>
<linearGradient id="SVGID_1_" gradientUnits="userSpaceOnUse" x1="130" y1="17.3441" x2="130" y2="249.886" gradientTransform="matrix(1 0 0 -1 0 262)">
	<stop  offset="0" style="stop-color:#FFFFFF"/>
	<stop  offset="0" style="stop-color:#222F7B"/>
	<stop  offset="0.1305" style="stop-color:#27307C"/>
	<stop  offset="0.2935" style="stop-color:#37327F"/>
	<stop  offset="0.4738" style="stop-color:#503583"/>
	<stop  offset="0.6665" style="stop-color:#74398A"/>
	<stop  offset="0.867" style="stop-color:#A13F92"/>
	<stop  offset="1" style="stop-color:#C34398"/>
</linearGradient>
<path class="st0" d="M130,12.1c-25.4,0-49.8,10.2-67.7,28.2c-17.9,18.2-28.1,42.6-28,68.2c-0.1,25.6,10,50,28,68.1l8.3,8.1l0.4-0.4
	c15.7-15.5,37-24.4,59.2-24.3c22.2,0,43.4,8.8,59,24.3l0.4,0.4l8.1-8.3c17.9-18.2,28.1-42.6,28-68.1c0-24.7-9.3-49.3-28-68.1
	C179.8,22.3,155.3,12.1,130,12.1z M130,34.3c19.6,0,38.2,7.8,52,21.7c26.8,27.1,29,70.1,4.8,99.5c-34.6-22.4-79.2-22.4-113.8,0
	c-10.7-13.3-16.5-30-16.5-47c0-18.8,7.1-38,21.7-52.5C91.8,42.1,110.4,34.3,130,34.3z M130,182c-15.9,0-31.8,6.1-44,18.3l13.7,13.5
	c16.8-16.9,44.3-16.9,61.1-0.1c0,0,0,0,0.1,0.1l13.5-13.5C162,188.1,146,182,130,182z M130,222.5c-5.9,0-11.5,2.4-15.4,6.5
	l15.4,15.7l15.5-15.7C141.4,224.8,135.9,222.5,130,222.5z"/>
</svg>
