<?xml version="1.0" encoding="utf-8"?>
<!-- Generator: Adobe Illustrator 28.0.0, SVG Export Plug-In . SVG Version: 6.00 Build 0)  -->
<svg version="1.1" id="Layer_1" xmlns="http://www.w3.org/2000/svg" xmlns:xlink="http://www.w3.org/1999/xlink" x="0px" y="0px"
	 viewBox="0 0 260 260" style="enable-background:new 0 0 260 260;" xml:space="preserve">
<style type="text/css">
	.st0{fill:url(#SVGID_1_);}
</style>
<linearGradient id="SVGID_1_" gradientUnits="userSpaceOnUse" x1="129" y1="190.3753" x2="129" y2="4.8">
	<stop  offset="0" style="stop-color:#FFFFFF"/>
	<stop  offset="0" style="stop-color:#222F7B"/>
	<stop  offset="0.1305" style="stop-color:#27307C"/>
	<stop  offset="0.2935" style="stop-color:#37327F"/>
	<stop  offset="0.4738" style="stop-color:#503583"/>
	<stop  offset="0.6665" style="stop-color:#74398A"/>
	<stop  offset="0.867" style="stop-color:#A13F92"/>
	<stop  offset="1" style="stop-color:#C34398"/>
</linearGradient>
<path class="st0" d="M129,4.8c-20.3,0-39.7,8.1-54,22.5c-14.3,14.5-22.4,34-22.3,54.4c-0.1,20.4,8,39.9,22.3,54.3l6.6,6.5l0.3-0.3
	c12.5-12.4,29.5-19.5,47.2-19.4c17.7,0,34.6,7,47.1,19.4l0.3,0.3l6.5-6.6c14.3-14.5,22.4-34,22.3-54.3c0-19.7-7.4-39.3-22.3-54.3
	C168.7,12.9,149.2,4.8,129,4.8z M129,22.5c15.6,0,30.5,6.2,41.5,17.3c21.4,21.6,23.1,55.9,3.8,79.4c-27.6-17.9-63.2-17.9-90.8,0
	C75,108.6,70.3,95.3,70.3,81.7c0-15,5.7-30.3,17.3-41.9C98.5,28.7,113.4,22.5,129,22.5z M129,140.3c-12.7,0-25.4,4.9-35.1,14.6
	l10.9,10.8c13.4-13.5,35.3-13.5,48.7-0.1c0,0,0,0,0.1,0.1l10.8-10.8C154.5,145.2,141.8,140.3,129,140.3z M129,172.6
	c-4.7,0-9.2,1.9-12.3,5.2l12.3,12.5l12.4-12.5C138.1,174.5,133.7,172.6,129,172.6z"/>
</svg>
